<?xml version="1.0" encoding="UTF-8"?>
<svg version="1.1" xmlns="http://www.w3.org/2000/svg" width="512" height="512">
<path d="M0 0 C4.58698313 2.17278148 6.85027773 4.44889002 9 9 C9.25239537 11.9377374 9.35087237 14.65195767 9.29296875 17.58203125 C9.28872391 18.39621017 9.28447906 19.2103891 9.28010559 20.04924011 C9.26337753 22.63733668 9.22573712 25.22464071 9.1875 27.8125 C9.17244553 29.57225434 9.15875846 31.33202095 9.14648438 33.09179688 C9.11349336 37.39483437 9.0617524 41.69728303 9 46 C9.82407349 45.43285278 9.82407349 45.43285278 10.66479492 44.85424805 C13.17131583 43.13046988 15.67939097 41.40896652 18.1875 39.6875 C19.05181641 39.09259766 19.91613281 38.49769531 20.80664062 37.88476562 C21.64775391 37.30791016 22.48886719 36.73105469 23.35546875 36.13671875 C24.51018677 35.34334106 24.51018677 35.34334106 25.68823242 34.53393555 C31.78332929 30.48963376 36.11458172 28.3301003 43.625 29.625 C48.01443346 31.41328771 50.67581586 33.78838017 53.11328125 37.859375 C54.13394788 40.32336316 54.33352773 42.21248016 54.375 44.875 C54.40335937 45.69742188 54.43171875 46.51984375 54.4609375 47.3671875 C53.46503905 53.05562442 49.70036967 56.61382582 45.1875 59.875 C44.14980469 60.6278125 43.11210937 61.380625 42.04296875 62.15625 C33.85924519 67.93755064 25.62379177 73.64557364 17.375 79.33349609 C15.82505248 80.42107234 14.30184019 81.54808662 12.8125 82.71728516 C11 84 11 84 9 84 C9 111.06 9 138.12 9 166 C11.97 166.66 14.94 167.32 18 168 C19.32 168.66 20.64 169.32 22 170 C26.20667471 169.86249658 28.69137183 166.78714129 31.51879883 163.99633789 C32.05743561 163.47580841 32.59607239 162.95527893 33.15103149 162.41897583 C34.92841798 160.69556418 36.69372743 158.96046804 38.45703125 157.22265625 C39.36358743 156.33256772 39.36358743 156.33256772 40.28845787 155.4244976 C43.48610946 152.28351146 46.67425716 149.13321957 49.85522461 145.9753418 C53.13851268 142.71967169 56.45309118 139.49792585 59.77605152 136.28283024 C62.32950708 133.80037692 64.85808326 131.29367273 67.38062096 128.77984428 C68.59190192 127.58131158 69.81241126 126.39202965 71.04221535 125.21251106 C77.78635235 119.16232597 77.78635235 119.16232597 81.5499115 111.26576233 C81.32191687 108.67614148 80.78236014 106.47426319 80 104 C79.758991 102.59085458 79.53675852 101.17833656 79.33569336 99.76293945 C79.09044413 98.37911905 78.84175211 96.99590494 78.58984375 95.61328125 C78.31954717 94.08270247 78.0493683 92.5521029 77.77929688 91.02148438 C77.35779405 88.65806659 76.93434963 86.29501966 76.50854492 83.93237305 C76.0929996 81.61855742 75.68481005 79.30353121 75.27734375 76.98828125 C75.14923813 76.29019852 75.02113251 75.59211578 74.8891449 74.87287903 C73.65596563 67.8267854 73.01473994 62.18402423 77 56 C80.91918201 51.85027787 85.38708172 50.30922588 91 50 C96.10134103 50.79394753 99.57929304 52.83958894 102.84033203 56.92675781 C105.38777031 61.48104114 105.93731685 66.79032935 106.8125 71.875 C107.02841797 73.0403125 107.24433594 74.205625 107.46679688 75.40625 C107.99462056 78.2682273 108.50505543 81.13218613 109 84 C111.17048941 84.22347027 111.17048941 84.22347027 112.86010742 82.31933594 C113.97156128 81.16353027 113.97156128 81.16353027 115.10546875 79.984375 C115.92466797 79.14519531 116.74386719 78.30601563 117.58789062 77.44140625 C119.30373031 75.66497719 121.01732155 73.88637326 122.72851562 72.10546875 C132.76015944 61.84672293 132.76015944 61.84672293 139.66015625 60.46875 C145.25205869 60.54149019 148.6852683 61.09619513 153 65 C156.12845834 68.45776975 157.31268346 71.23422345 157.625 75.8125 C157.00150813 86.13149289 148.10651486 93.28601456 141.125 100.0625 C140.24585938 100.92810547 139.36671875 101.79371094 138.4609375 102.68554688 C136.31403703 104.79744353 134.1604222 106.90195304 132 109 C132.75619629 109.13051758 133.51239258 109.26103516 134.29150391 109.39550781 C137.73875178 109.99902722 141.18171545 110.62428092 144.625 111.25 C145.81480469 111.45496094 147.00460937 111.65992188 148.23046875 111.87109375 C156.08272674 113.31871673 160.93852134 114.61626043 166.375 120.625 C168.82628228 125.71612474 169.14923246 130.70594332 167.26953125 136.09375 C165.23823101 140.00711209 163.05575528 142.34082739 159 144 C153.10217584 145.30663421 149.8486957 144.90209633 144.38354492 142.43859863 C131.92848229 136.85480094 117.35150965 132.35801335 104 137 C81.3846157 149.38274987 63.25464563 174.48943163 47 194 C47.3609375 194.83144531 47.721875 195.66289062 48.09375 196.51953125 C48.78984375 198.14955078 48.78984375 198.14955078 49.5 199.8125 C49.9640625 200.89144531 50.428125 201.97039062 50.90625 203.08203125 C52 206 52 206 52 209 C62.36072824 209.61559472 72.71280899 210.05053803 83.08998585 210.26683807 C87.91274789 210.37280165 92.71786876 210.53632845 97.5324707 210.84130859 C117.53052189 212.79503663 117.53052189 212.79503663 135.85533905 206.60754395 C142.73726739 199.88867766 146.69575148 190.95061752 150.31299686 182.18257904 C154.02190051 173.22322159 158.88625671 163.62478795 167 158 C171.35250507 156.54916498 175.58113755 156.14657071 179.9375 157.68359375 C184.33792688 159.9691603 186.61743166 162.55559368 189 167 C189.55572845 169.99894379 189.56059886 172.89493206 189.5 175.9375 C189.51546875 176.71029297 189.5309375 177.48308594 189.546875 178.27929688 C189.50978457 183.76404352 188.14554805 187.48760681 185 192 C184.32710938 193.01090698 184.32710938 193.01090698 183.640625 194.04223633 C182.19889218 196.18989913 180.72932155 198.31558602 179.25 200.4375 C178.49009766 201.53481445 178.49009766 201.53481445 177.71484375 202.65429688 C176.47910287 204.43796059 175.23991037 206.21923217 174 208 C175.02883301 208.0093457 176.05766602 208.01869141 177.11767578 208.02832031 C180.95355712 208.06834769 184.78864712 208.13414054 188.62402344 208.20751953 C190.28049514 208.23565562 191.93709927 208.2569067 193.59375 208.27099609 C195.98245676 208.29252891 198.36958386 208.33922755 200.7578125 208.390625 C201.49242706 208.39185364 202.22704163 208.39308228 202.98391724 208.39434814 C208.10719532 208.53861187 211.04107877 209.78669852 215 213 C219.05630398 218.22259857 218.77397544 223.65340142 218 230 C215.82292038 234.59605698 213.54274689 236.8224563 209 239 C206.14408395 239.31888452 203.49327071 239.48775347 200.63671875 239.51171875 C199.84473587 239.52966995 199.05275299 239.54762115 198.23677063 239.56611633 C195.72040038 239.62006838 193.20421815 239.65406563 190.6875 239.6875 C188.97588538 239.72068651 187.26429552 239.75517741 185.55273438 239.79101562 C181.36862558 239.87578582 177.18457107 239.94266843 173 240 C173.73605469 241.0621875 174.47210938 242.124375 175.23046875 243.21875 C176.21623862 244.64576924 177.20191045 246.07285621 178.1875 247.5 C178.67025391 248.19609375 179.15300781 248.8921875 179.65039062 249.609375 C180.62761307 251.02601962 181.5967648 252.4482627 182.55810547 253.87573242 C183.50130206 255.26529448 184.46844864 256.63897145 185.46142578 257.9934082 C189.02226057 263.09490343 189.727199 267.02730898 189.5 273.1875 C189.50257813 273.96802734 189.50515625 274.74855469 189.5078125 275.55273438 C189.40744261 281.46953944 187.96903153 284.78483953 184 289.25 C180.78469588 292.0633911 177.81180093 292.20411588 173.6875 292.3125 C172.76324219 292.34988281 171.83898437 292.38726562 170.88671875 292.42578125 C166.02170745 291.70820854 162.88233178 289.16440071 159.94873047 285.29296875 C159.34432129 284.26816406 158.73991211 283.24335938 158.1171875 282.1875 C157.7768045 281.619104 157.43642151 281.05070801 157.08572388 280.46508789 C156.00288564 278.65052707 154.9386327 276.8258704 153.875 275 C153.18612707 273.83781098 152.49602887 272.67634733 151.8046875 271.515625 C151.45990356 270.93037048 151.11511963 270.34511597 150.7598877 269.74212646 C150.02892583 268.52095179 149.28015063 267.31029373 148.51550293 266.10992432 C146.18329775 262.37272291 144.568279 258.86497754 143.22070312 254.66308594 C140.96641858 248.55027392 138.6168073 243.60783709 133 240 C121.08722725 236.10593024 106.95022768 237.73584978 94.62750244 238.16314697 C89.82149745 238.30820891 85.01485346 238.33848592 80.20703125 238.37890625 C70.80061365 238.47467221 61.40185436 238.69662783 52 239 C51.87882812 239.60328125 51.75765625 240.2065625 51.6328125 240.828125 C51.46523438 241.62734375 51.29765625 242.4265625 51.125 243.25 C50.88136719 244.43335938 50.88136719 244.43335938 50.6328125 245.640625 C50 248 50 248 48.8671875 250.046875 C47.86001029 251.93334339 47.86001029 251.93334339 48.06149292 253.89834595 C49.44843948 257.00421687 51.6791503 259.21455635 54.01611328 261.62646484 C54.53836487 262.17646149 55.06061646 262.72645813 55.59869385 263.29312134 C57.32959268 265.10860952 59.07290541 266.91133831 60.8203125 268.7109375 C61.41849667 269.327589 62.01668083 269.94424049 62.63299179 270.5795784 C65.80403223 273.84247443 68.98678051 277.09350582 72.17724609 280.33740234 C74.80841056 283.01747865 77.4131821 285.71961557 79.99755859 288.44482422 C83.12515068 291.74268122 86.29300693 294.99629627 89.49358749 298.22331619 C90.70186198 299.45533404 91.8956262 300.70176881 93.07364273 301.96274948 C99.77117531 309.33270579 99.77117531 309.33270579 108.93319702 312.32980347 C112.76796827 311.84203881 116.28114347 311.04050138 120 310 C122.42079877 309.55004011 124.84499301 309.11761668 127.2734375 308.7109375 C130.84709934 308.04406317 134.41842522 307.36664358 137.98828125 306.6796875 C156.06628172 303.32377139 156.06628172 303.32377139 163 308 C167.42332017 312.90151694 168.37236971 315.91570851 168.26953125 322.39453125 C167.85742937 326.37818275 166.72590996 329.06198753 164 332 C155.67622821 337.87560362 143.03089503 339.31643202 133 339 C136.23835909 342.89780676 139.5940138 346.63733167 143.21875 350.1796875 C143.78891846 350.73760986 144.35908691 351.29553223 144.9465332 351.87036133 C146.08418687 352.97610772 147.22832376 354.07523308 148.37963867 355.16674805 C152.69079393 359.35924174 156.31882217 363.5891022 157.53125 369.66015625 C157.45850981 375.25205869 156.90380487 378.6852683 153 383 C149.54223025 386.12845834 146.76577655 387.31268346 142.1875 387.625 C132.09036069 387.02236324 125.0740251 378.47454936 118.4375 371.625 C117.61958984 370.79355469 116.80167969 369.96210938 115.95898438 369.10546875 C113.96555089 367.07706275 111.97953015 365.04196075 110 363 C108.73650854 367.77438476 107.7291337 372.45949404 107.01245117 377.34326172 C104.95431636 391.00333906 104.95431636 391.00333906 100 396 C95.3273586 399.39828466 90.59890421 399.8486144 85 399 C80.69163621 397.65680423 77.87374617 395.39452026 75.5 391.5625 C71.30105474 381.29963935 76.07564705 367.16324798 78.0625 356.5625 C78.4873278 354.28699949 78.91004041 352.01120387 79.32627869 349.7341156 C79.58268984 348.33185445 79.84389657 346.93045808 80.1108551 345.53016663 C80.83163443 341.59449104 81.44357788 337.98237034 81 334 C79.37229641 331.77958406 77.88357194 330.0614087 75.9387207 328.16235352 C75.40055222 327.61367111 74.86238373 327.06498871 74.3079071 326.49967957 C72.52864467 324.69405394 70.72838139 322.91121152 68.92578125 321.12890625 C67.68134565 319.88042863 66.43780186 318.63106151 65.19511414 317.38084412 C62.58934816 314.76623704 59.97304977 312.1627789 57.34887695 309.56665039 C53.98336539 306.23535919 50.64555613 302.8778065 47.31513691 299.51147556 C44.75318688 296.92786477 42.1771429 294.35869074 39.5965786 291.79368401 C38.35977611 290.5608879 37.12742599 289.32360844 35.89962196 288.08185005 C34.18325034 286.35026839 32.4488713 284.63904329 30.70825195 282.93188477 C30.20258698 282.4140744 29.696922 281.89626404 29.17593384 281.36276245 C27.59617149 279.77250702 27.59617149 279.77250702 25 278 C22.29729143 278.00625805 22.29729143 278.00625805 20 279 C19.29617188 279.24878906 18.59234375 279.49757813 17.8671875 279.75390625 C16.53368328 280.29515208 15.20035119 280.83682218 13.8671875 281.37890625 C12 282 12 282 9 282 C8.6656008 292.57962588 8.44190276 303.15548145 8.35490799 313.74019814 C8.31111219 318.65728198 8.23093123 323.56785607 8.06396484 328.48242188 C6.45676965 348.97072267 6.45676965 348.97072267 11.89700317 368.09677124 C16.37226844 372.76587084 21.44145904 375.45290471 27.39027405 377.83976746 C31.81260268 379.8058473 35.55900869 382.70196982 39.4375 385.5625 C40.78842072 386.50409712 42.1409627 387.44337871 43.49609375 388.37890625 C47.82563451 391.51704253 52.13513585 394.82783533 54 400 C54.78671167 405.61936904 54.22202478 410.22251498 51 415 C46.44730005 419.21124745 42.60178425 420.50230245 36.5078125 420.39453125 C29.05422823 419.22192687 22.67257591 413.07613771 16.66796875 408.7734375 C16.02420288 408.31283936 15.38043701 407.85224121 14.71716309 407.37768555 C13.14440587 406.2523066 11.57215108 405.12622556 10 404 C9.98598145 405.54324951 9.98598145 405.54324951 9.97167969 407.11767578 C9.93165231 410.95355712 9.86585946 414.78864712 9.79248047 418.62402344 C9.76434438 420.28049514 9.7430933 421.93709927 9.72900391 423.59375 C9.70747109 425.98245676 9.66077245 428.36958386 9.609375 430.7578125 C9.60814636 431.49242706 9.60691772 432.22704163 9.60565186 432.98391724 C9.46138813 438.10719532 8.21330148 441.04107877 5 445 C-0.22259857 449.05630398 -5.65340142 448.77397544 -12 448 C-16.59760761 445.82218587 -18.81382741 443.53908388 -21 439 C-21.31848388 436.21528915 -21.48766159 433.64062063 -21.51171875 430.85546875 C-21.52966995 430.08568192 -21.54762115 429.31589508 -21.56611633 428.52278137 C-21.62005387 426.07774236 -21.65406073 423.63289668 -21.6875 421.1875 C-21.72068782 419.52406174 -21.75517884 417.86064893 -21.79101562 416.19726562 C-21.87577037 412.13165029 -21.94265973 408.06609064 -22 404 C-22.47832275 404.34256836 -22.95664551 404.68513672 -23.44946289 405.03808594 C-25.65138774 406.61214203 -27.85690538 408.18109068 -30.0625 409.75 C-30.81466797 410.28882813 -31.56683594 410.82765625 -32.34179688 411.3828125 C-46.31081019 421.30020723 -46.31081019 421.30020723 -55 420 C-59.71878688 418.30835942 -62.20582817 416.13951382 -65 412 C-65.88951276 409.33146173 -66.22066937 407.51458531 -66.3125 404.75 C-66.34988281 404.02296875 -66.38726562 403.2959375 -66.42578125 402.546875 C-65.44749108 396.69508428 -62.57362464 393.16415229 -57.9375 389.74609375 C-56.3015438 388.62863012 -54.65532972 387.52605922 -53 386.4375 C-50.456279 384.71963473 -47.9342398 382.99882871 -45.45410156 381.18945312 C-42.73787773 379.31833733 -39.96631761 378.14015865 -36.91308594 376.90429688 C-30.65791146 374.01980209 -25.6424767 370.99872015 -22 365 C-18.11421076 352.69966495 -19.7317326 338.26149899 -20.16314697 325.56304932 C-20.3083954 320.64961051 -20.33850852 315.73553367 -20.37890625 310.8203125 C-20.47457543 301.20954458 -20.69636577 291.60629266 -21 282 C-21.88945312 281.87753906 -22.77890625 281.75507813 -23.6953125 281.62890625 C-26.7410805 281.04927428 -29.08548623 280.24772617 -31.875 278.9375 C-32.65617188 278.57527344 -33.43734375 278.21304687 -34.2421875 277.83984375 C-34.82226562 277.56269531 -35.40234375 277.28554688 -36 277 C-43.48747308 284.18572566 -50.93906038 291.40659449 -58.34744358 298.67388535 C-61.78899962 302.04770797 -65.2415253 305.40843245 -68.72241211 308.74169922 C-72.08393857 311.9615474 -75.41229998 315.21251923 -78.72050285 318.48709869 C-79.9854784 319.72812758 -81.26181081 320.95769276 -82.54956245 322.17507172 C-89.77778741 328.64698821 -89.77778741 328.64698821 -93.5856781 337.22270203 C-93.36304921 340.30599782 -92.81719218 343.02345755 -92 346 C-91.76459217 347.45524665 -91.54167668 348.91261224 -91.33569336 350.37231445 C-91.09250567 351.70363983 -90.84385535 353.03397857 -90.58984375 354.36328125 C-90.45808243 355.08436569 -90.32632111 355.80545013 -90.19056702 356.54838562 C-89.63858323 359.56880372 -89.07332387 362.58668877 -88.50854492 365.60473633 C-88.09309243 367.8358524 -87.68503175 370.0682355 -87.27734375 372.30078125 C-87.14923813 372.97071609 -87.02113251 373.64065094 -86.8891449 374.33088684 C-85.62442616 381.27074147 -85.22341509 386.97551144 -88.6796875 393.19921875 C-91.43040043 396.95093077 -94.66338938 398.60298297 -99.20703125 399.375 C-104.72196781 399.6756439 -108.75797908 398.54542559 -113 395 C-117.18909032 389.08132315 -118.13577841 383.27441721 -119.1875 376.1875 C-119.51183766 374.11809854 -119.83854032 372.04906591 -120.16796875 369.98046875 C-120.30485107 369.07192139 -120.4417334 368.16337402 -120.58276367 367.22729492 C-120.89971916 364.97149482 -120.89971916 364.97149482 -122 363 C-122.56920166 363.58491211 -123.13840332 364.16982422 -123.72485352 364.77246094 C-126.32934964 367.43964271 -128.94574627 370.09484527 -131.5625 372.75 C-132.45775391 373.67039062 -133.35300781 374.59078125 -134.27539062 375.5390625 C-144.77769773 386.15677958 -144.77769773 386.15677958 -151.66015625 387.53125 C-157.25205869 387.45850981 -160.6852683 386.90380487 -165 383 C-168.12845834 379.54223025 -169.31268346 376.76577655 -169.625 372.1875 C-169.04534554 362.33918045 -160.9064764 355.51798713 -154.1875 349.0625 C-152.65810347 347.57632831 -151.13065479 346.08814864 -149.60546875 344.59765625 C-148.93668701 343.95320557 -148.26790527 343.30875488 -147.57885742 342.64477539 C-145.91185531 341.07101622 -145.91185531 341.07101622 -145 339 C-145.70382813 338.96261719 -146.40765625 338.92523438 -147.1328125 338.88671875 C-170.29270152 337.3447418 -170.29270152 337.3447418 -177 331 C-180.53100394 326.05659448 -180.87011862 320.88047201 -180 315 C-177.38679161 309.86691209 -174.46062759 306.8202092 -169 305 C-162.69506304 304.50059658 -156.68707955 305.38383359 -150.51171875 306.56640625 C-149.64609818 306.72415024 -148.7804776 306.88189423 -147.8886261 307.04441833 C-144.22258667 307.71262841 -140.56005248 308.39919702 -136.8972168 309.0847168 C-134.20741031 309.58536121 -131.51593545 310.07615442 -128.82421875 310.56640625 C-127.58510994 310.80382286 -127.58510994 310.80382286 -126.32096863 311.04603577 C-125.5494899 311.18625656 -124.77801117 311.32647736 -123.9831543 311.47094727 C-122.97130318 311.66080956 -122.97130318 311.66080956 -121.93901062 311.85450745 C-118.02934863 312.1478667 -116.4285034 311.36273932 -113.38627625 308.78741455 C-112.37970091 307.80777521 -111.38128215 306.81971301 -110.3894043 305.82519531 C-109.84101395 305.2868808 -109.2926236 304.74856628 -108.72761536 304.19393921 C-106.91845288 302.41326 -105.12080567 300.6214857 -103.32421875 298.828125 C-102.07222915 297.58577384 -100.82001349 296.34365046 -99.56758118 295.10174561 C-96.94552085 292.49764591 -94.32973512 289.88742039 -91.7175293 287.2734375 C-88.36539581 283.92099863 -84.99307788 280.58969372 -81.61509991 277.26332474 C-79.0235527 274.70508595 -76.44570815 272.13337569 -73.87156105 269.55764008 C-72.63357737 268.3232024 -71.39071265 267.09364015 -70.14298058 265.8690567 C-68.40197858 264.15736446 -66.68092412 262.42780763 -64.96362305 260.69238281 C-64.18219437 259.93624191 -64.18219437 259.93624191 -63.38497925 259.16482544 C-61.78530531 257.59048726 -61.78530531 257.59048726 -60 255 C-60.00380295 252.29772747 -60.00380295 252.29772747 -61 250 C-61.24878906 249.29617188 -61.49757812 248.59234375 -61.75390625 247.8671875 C-62.29515208 246.53368328 -62.83682218 245.20035119 -63.37890625 243.8671875 C-64 242 -64 242 -64 239 C-74.4666214 238.68903604 -84.92974604 238.48293351 -95.40085888 238.40672016 C-100.26498434 238.36810448 -105.1232024 238.29487189 -109.98510742 238.1394043 C-130.11357611 236.57396486 -130.11357611 236.57396486 -148.95980835 241.77246094 C-153.4261606 246.03925314 -155.90021672 250.96645951 -158.07443237 256.68746948 C-159.32546436 259.81317264 -161.12601041 262.35674911 -163.12109375 265.0546875 C-163.68376953 265.87324219 -164.24644531 266.69179688 -164.82617188 267.53515625 C-165.6237793 268.69337891 -165.6237793 268.69337891 -166.4375 269.875 C-167.27571289 271.11443359 -167.27571289 271.11443359 -168.13085938 272.37890625 C-171.9042622 277.83474595 -175.47759536 282.82586512 -182 285 C-187.61875724 285.3684431 -191.15711379 285.19190228 -196 282 C-200.50786995 277.00479275 -201.54263763 273.70564851 -201.46484375 267.05859375 C-200.60749662 261.41739373 -197.27322712 257.52765259 -194 253 C-192.40440015 250.72369561 -190.82459171 248.43662402 -189.24609375 246.1484375 C-188.83516479 245.55377686 -188.42423584 244.95911621 -188.00085449 244.34643555 C-187.00004257 242.89798775 -185.99994589 241.4490458 -185 240 C-186.58868896 239.98598145 -186.58868896 239.98598145 -188.20947266 239.97167969 C-192.15715851 239.93166151 -196.10407471 239.8658709 -200.05126953 239.79248047 C-201.75624671 239.76433913 -203.46135269 239.74309065 -205.16650391 239.72900391 C-207.62469089 239.70747863 -210.08134048 239.660783 -212.5390625 239.609375 C-213.29555084 239.60814636 -214.05203918 239.60691772 -214.83145142 239.60565186 C-219.96831346 239.4650261 -222.9013726 238.3442788 -227 235 C-231.05630398 229.77740143 -230.77397544 224.34659858 -230 218 C-227.82218587 213.40239239 -225.53908388 211.18617259 -221 209 C-218.21528915 208.68151612 -215.64062063 208.51233841 -212.85546875 208.48828125 C-212.08568192 208.47033005 -211.31589508 208.45237885 -210.52278137 208.43388367 C-208.07774236 208.37994613 -205.63289668 208.34593927 -203.1875 208.3125 C-201.52406174 208.27931218 -199.86064893 208.24482116 -198.19726562 208.20898438 C-194.13165029 208.12422963 -190.06609064 208.05734027 -186 208 C-186.74765625 206.92621094 -187.4953125 205.85242188 -188.265625 204.74609375 C-189.26056618 203.30999941 -190.25534945 201.87379565 -191.25 200.4375 C-191.98669922 199.38079102 -191.98669922 199.38079102 -192.73828125 198.30273438 C-202.46658576 184.22912051 -202.46658576 184.22912051 -201 175 C-199.28663278 170.09812052 -196.6479921 167.27738295 -192 165 C-189.09765625 164.56640625 -189.09765625 164.56640625 -186.0625 164.5625 C-185.06347656 164.54316406 -184.06445312 164.52382812 -183.03515625 164.50390625 C-177.28887422 165.44313124 -174.14608863 168.55578076 -170.80859375 173.09765625 C-169.67380334 174.74501788 -168.55037148 176.40025252 -167.4375 178.0625 C-166.90576172 178.83916016 -166.37402344 179.61582031 -165.82617188 180.41601562 C-165.26349609 181.23908203 -164.70082031 182.06214844 -164.12109375 182.91015625 C-163.46181885 183.80710205 -162.80254395 184.70404785 -162.12329102 185.62817383 C-160.34283289 188.45557491 -159.28450636 190.77866819 -158.12475586 193.86206055 C-155.51639824 199.88113557 -152.75363476 204.58124866 -147 208 C-134.6846805 211.75282732 -120.31925196 210.16885872 -107.63171387 209.76818848 C-102.71153742 209.6333472 -97.79085932 209.60765073 -92.86914062 209.57226562 C-83.24256442 209.48721399 -73.6226718 209.28234735 -64 209 C-63.87882813 208.39671875 -63.75765625 207.7934375 -63.6328125 207.171875 C-63.38144531 205.97304688 -63.38144531 205.97304688 -63.125 204.75 C-62.88136719 203.56664062 -62.88136719 203.56664062 -62.6328125 202.359375 C-62 200 -62 200 -60.8671875 197.953125 C-59.85290364 196.06615164 -59.85290364 196.06615164 -60.09896851 194.10186768 C-64.87510063 182.96041724 -77.39462089 172.52068594 -85.625 163.75 C-86.23809902 163.09516758 -86.85119804 162.44033516 -87.48287582 161.76565933 C-104.04969613 143.22181138 -104.04969613 143.22181138 -126.44616699 135.056427 C-136.69683345 135.54620287 -146.75537839 138.40394907 -156.10588074 142.60301208 C-162.14830197 145.25460133 -166.75378657 145.29828174 -173 143 C-176.95167593 139.87158989 -179.61788787 136.69255755 -180.3359375 131.6328125 C-180.42531743 125.89462069 -180.01244424 122.43480679 -176 118 C-170.35017977 113.13275622 -163.81155038 112.48798647 -156.625 111.25 C-155.41199219 111.02957031 -154.19898438 110.80914062 -152.94921875 110.58203125 C-149.96815567 110.04215368 -146.98539715 109.51527204 -144 109 C-144.61520508 108.40050537 -145.23041016 107.80101074 -145.86425781 107.18334961 C-148.1665073 104.93255553 -150.46167758 102.67483165 -152.75244141 100.41235352 C-153.74091674 99.43886485 -154.73208046 98.46809748 -155.72607422 97.50024414 C-168.11566548 85.42817507 -168.11566548 85.42817507 -169.53125 78.33984375 C-169.45850981 72.74794131 -168.90380487 69.3147317 -165 65 C-161.54223025 61.87154166 -158.76577655 60.68731654 -154.1875 60.375 C-144.09036069 60.97763676 -137.0740251 69.52545064 -130.4375 76.375 C-129.21063477 77.62216797 -129.21063477 77.62216797 -127.95898438 78.89453125 C-125.96555089 80.92293725 -123.97953015 82.95803925 -122 85 C-120.67368702 81.45734823 -119.77008703 78.0035628 -119.140625 74.28515625 C-118.99367188 73.43373047 -118.84671875 72.58230469 -118.6953125 71.70507812 C-118.39949887 69.94965776 -118.11812547 68.19174021 -117.8515625 66.43164062 C-116.75095453 60.26170699 -114.86449514 56.08748489 -110 52 C-105.42303644 49.74738784 -100.5491336 49.47442121 -95.6875 51 C-91.61895046 52.84484837 -89.51093415 55.34773215 -87 59 C-83.70293929 68.89118214 -88.17524083 82.39690885 -90.0625 92.5 C-90.48687327 94.78586716 -90.90920791 97.07204158 -91.32627869 99.35925293 C-91.5833724 100.76802789 -91.84464689 102.17604877 -92.1108551 103.58312988 C-93.12402417 108.7765838 -93.12402417 108.7765838 -93 114 C-91.31801778 116.14933787 -89.71381968 117.91944873 -87.76757812 119.80004883 C-87.2116246 120.35673248 -86.65567108 120.91341614 -86.08287048 121.48696899 C-84.24393419 123.32242435 -82.38792953 125.13954081 -80.53125 126.95703125 C-79.2522094 128.22674561 -77.97426894 129.49756907 -76.6973877 130.76945496 C-73.33483206 134.11292631 -69.95753234 137.44111151 -66.57696533 140.76635742 C-63.12953705 144.16262489 -59.69623203 147.57310326 -56.26171875 150.98242188 C-49.52157708 157.66895057 -42.76577739 164.33941905 -36 171 C-35.16855469 170.6390625 -34.33710938 170.278125 -33.48046875 169.90625 C-32.39378906 169.4421875 -31.30710938 168.978125 -30.1875 168.5 C-29.10855469 168.0359375 -28.02960938 167.571875 -26.91796875 167.09375 C-24 166 -24 166 -21 166 C-21 138.94 -21 111.88 -21 84 C-22.65 83.34 -24.3 82.68 -26 82 C-28.32164283 80.39662426 -30.56998676 78.7689272 -32.8125 77.0625 C-38.91457631 72.4927939 -45.11632384 68.11487441 -51.45629883 63.88110352 C-63.62650759 55.65586218 -63.62650759 55.65586218 -66 50 C-66.70358198 45.11583208 -66.63851284 40.48851634 -64.3125 36.0625 C-60.93960422 31.59569207 -58.61664125 30.37103242 -53.1875 29.125 C-44.63865981 28.3744573 -38.08173879 33.75319379 -31.625 38.625 C-30.03460965 39.8057058 -28.44349932 40.98544261 -26.8515625 42.1640625 C-26.15885254 42.68436035 -25.46614258 43.2046582 -24.75244141 43.74072266 C-23.01904704 45.05662978 -23.01904704 45.05662978 -21 46 C-21.02094727 44.91058105 -21.04189453 43.82116211 -21.06347656 42.69873047 C-21.13611865 38.63978322 -21.18188718 34.58089294 -21.21972656 30.52148438 C-21.2397871 28.76780521 -21.26704251 27.01419247 -21.30175781 25.26074219 C-21.35052302 22.73355682 -21.37302392 20.20725909 -21.390625 17.6796875 C-21.41127014 16.90132538 -21.43191528 16.12296326 -21.45318604 15.3210144 C-21.45532463 10.08067369 -20.44360231 7.17102916 -17 3 C-11.77740143 -1.05630398 -6.34659858 -0.77397544 0 0 Z M-28.5 204.3125 C-29.84350434 206.09338765 -29.84350434 206.09338765 -31 208 C-31.40992188 208.64453125 -31.81984375 209.2890625 -32.2421875 209.953125 C-35.81933273 216.61401612 -36.05748044 223.61378165 -35 231 C-32.12358837 239.73087487 -27.75593545 245.81671744 -19.75390625 250.2421875 C-11.58265954 254.03364597 -3.17779485 254.44129769 5.3125 251.375 C13.56046098 247.58146666 18.35014535 242.2951242 22 234 C24.4951215 226.17658678 23.89669165 217.93168222 20.4375 210.5625 C17.64937266 205.61813399 14.82399057 202.01001064 10 199 C9.35546875 198.59007812 8.7109375 198.18015625 8.046875 197.7578125 C-4.10301727 191.23287035 -19.19512191 194.35628045 -28.5 204.3125 Z " fill="#1C789F" transform="translate(262,32)"/>
<path d="M0 0 C0 64.35 0 128.7 0 195 C-3.3 195.66 -6.6 196.32 -10 197 C-18.60424 200.4712873 -23.22602679 206.16309804 -27.125 214.3671875 C-29.67373784 222.0361576 -28.83405277 230.24299927 -25.5 237.5 C-21.33023739 244.85091953 -15.91747067 248.67299858 -8.0546875 251.45703125 C-5.41169939 252.15546347 -2.69651914 252.55058014 0 253 C0 317.35 0 381.7 0 448 C-6.21029673 448 -7.44462468 447.74553082 -12 444 C-15.22377204 439.81192128 -15.46756037 435.96778391 -15.51171875 430.85546875 C-15.52966995 430.08568192 -15.54762115 429.31589508 -15.56611633 428.52278137 C-15.62005387 426.07774236 -15.65406073 423.63289668 -15.6875 421.1875 C-15.72068782 419.52406174 -15.75517884 417.86064893 -15.79101562 416.19726562 C-15.87577037 412.13165029 -15.94265973 408.06609064 -16 404 C-16.47832275 404.34256836 -16.95664551 404.68513672 -17.44946289 405.03808594 C-19.65138774 406.61214203 -21.85690538 408.18109068 -24.0625 409.75 C-24.81466797 410.28882813 -25.56683594 410.82765625 -26.34179688 411.3828125 C-40.31081019 421.30020723 -40.31081019 421.30020723 -49 420 C-53.71878688 418.30835942 -56.20582817 416.13951382 -59 412 C-59.88951276 409.33146173 -60.22066937 407.51458531 -60.3125 404.75 C-60.34988281 404.02296875 -60.38726562 403.2959375 -60.42578125 402.546875 C-59.44749108 396.69508428 -56.57362464 393.16415229 -51.9375 389.74609375 C-50.3015438 388.62863012 -48.65532972 387.52605922 -47 386.4375 C-44.456279 384.71963473 -41.9342398 382.99882871 -39.45410156 381.18945312 C-36.73787773 379.31833733 -33.96631761 378.14015865 -30.91308594 376.90429688 C-24.65791146 374.01980209 -19.6424767 370.99872015 -16 365 C-12.11421076 352.69966495 -13.7317326 338.26149899 -14.16314697 325.56304932 C-14.3083954 320.64961051 -14.33850852 315.73553367 -14.37890625 310.8203125 C-14.47457543 301.20954458 -14.69636577 291.60629266 -15 282 C-15.88945312 281.87753906 -16.77890625 281.75507813 -17.6953125 281.62890625 C-20.7410805 281.04927428 -23.08548623 280.24772617 -25.875 278.9375 C-26.65617188 278.57527344 -27.43734375 278.21304687 -28.2421875 277.83984375 C-28.82226562 277.56269531 -29.40234375 277.28554688 -30 277 C-37.48747308 284.18572566 -44.93906038 291.40659449 -52.34744358 298.67388535 C-55.78899962 302.04770797 -59.2415253 305.40843245 -62.72241211 308.74169922 C-66.08393857 311.9615474 -69.41229998 315.21251923 -72.72050285 318.48709869 C-73.9854784 319.72812758 -75.26181081 320.95769276 -76.54956245 322.17507172 C-83.77778741 328.64698821 -83.77778741 328.64698821 -87.5856781 337.22270203 C-87.36304921 340.30599782 -86.81719218 343.02345755 -86 346 C-85.76459217 347.45524665 -85.54167668 348.91261224 -85.33569336 350.37231445 C-85.09250567 351.70363983 -84.84385535 353.03397857 -84.58984375 354.36328125 C-84.45808243 355.08436569 -84.32632111 355.80545013 -84.19056702 356.54838562 C-83.63858323 359.56880372 -83.07332387 362.58668877 -82.50854492 365.60473633 C-82.09309243 367.8358524 -81.68503175 370.0682355 -81.27734375 372.30078125 C-81.14923813 372.97071609 -81.02113251 373.64065094 -80.8891449 374.33088684 C-79.62442616 381.27074147 -79.22341509 386.97551144 -82.6796875 393.19921875 C-85.43040043 396.95093077 -88.66338938 398.60298297 -93.20703125 399.375 C-98.72196781 399.6756439 -102.75797908 398.54542559 -107 395 C-111.18909032 389.08132315 -112.13577841 383.27441721 -113.1875 376.1875 C-113.51183766 374.11809854 -113.83854032 372.04906591 -114.16796875 369.98046875 C-114.30485107 369.07192139 -114.4417334 368.16337402 -114.58276367 367.22729492 C-114.89971916 364.97149482 -114.89971916 364.97149482 -116 363 C-116.56920166 363.58491211 -117.13840332 364.16982422 -117.72485352 364.77246094 C-120.32934964 367.43964271 -122.94574627 370.09484527 -125.5625 372.75 C-126.45775391 373.67039062 -127.35300781 374.59078125 -128.27539062 375.5390625 C-138.77769773 386.15677958 -138.77769773 386.15677958 -145.66015625 387.53125 C-151.25205869 387.45850981 -154.6852683 386.90380487 -159 383 C-162.12845834 379.54223025 -163.31268346 376.76577655 -163.625 372.1875 C-163.04534554 362.33918045 -154.9064764 355.51798713 -148.1875 349.0625 C-146.65810347 347.57632831 -145.13065479 346.08814864 -143.60546875 344.59765625 C-142.93668701 343.95320557 -142.26790527 343.30875488 -141.57885742 342.64477539 C-139.91185531 341.07101622 -139.91185531 341.07101622 -139 339 C-139.70382813 338.96261719 -140.40765625 338.92523438 -141.1328125 338.88671875 C-164.29270152 337.3447418 -164.29270152 337.3447418 -171 331 C-174.53100394 326.05659448 -174.87011862 320.88047201 -174 315 C-171.38679161 309.86691209 -168.46062759 306.8202092 -163 305 C-156.69506304 304.50059658 -150.68707955 305.38383359 -144.51171875 306.56640625 C-143.64609818 306.72415024 -142.7804776 306.88189423 -141.8886261 307.04441833 C-138.22258667 307.71262841 -134.56005248 308.39919702 -130.8972168 309.0847168 C-128.20741031 309.58536121 -125.51593545 310.07615442 -122.82421875 310.56640625 C-121.58510994 310.80382286 -121.58510994 310.80382286 -120.32096863 311.04603577 C-119.5494899 311.18625656 -118.77801117 311.32647736 -117.9831543 311.47094727 C-116.97130318 311.66080956 -116.97130318 311.66080956 -115.93901062 311.85450745 C-112.02934863 312.1478667 -110.4285034 311.36273932 -107.38627625 308.78741455 C-106.37970091 307.80777521 -105.38128215 306.81971301 -104.3894043 305.82519531 C-103.84101395 305.2868808 -103.2926236 304.74856628 -102.72761536 304.19393921 C-100.91845288 302.41326 -99.12080567 300.6214857 -97.32421875 298.828125 C-96.07222915 297.58577384 -94.82001349 296.34365046 -93.56758118 295.10174561 C-90.94552085 292.49764591 -88.32973512 289.88742039 -85.7175293 287.2734375 C-82.36539581 283.92099863 -78.99307788 280.58969372 -75.61509991 277.26332474 C-73.0235527 274.70508595 -70.44570815 272.13337569 -67.87156105 269.55764008 C-66.63357737 268.3232024 -65.39071265 267.09364015 -64.14298058 265.8690567 C-62.40197858 264.15736446 -60.68092412 262.42780763 -58.96362305 260.69238281 C-58.18219437 259.93624191 -58.18219437 259.93624191 -57.38497925 259.16482544 C-55.78530531 257.59048726 -55.78530531 257.59048726 -54 255 C-54.00380295 252.29772747 -54.00380295 252.29772747 -55 250 C-55.24878906 249.29617188 -55.49757812 248.59234375 -55.75390625 247.8671875 C-56.29515208 246.53368328 -56.83682218 245.20035119 -57.37890625 243.8671875 C-58 242 -58 242 -58 239 C-68.4666214 238.68903604 -78.92974604 238.48293351 -89.40085888 238.40672016 C-94.26498434 238.36810448 -99.1232024 238.29487189 -103.98510742 238.1394043 C-124.11357611 236.57396486 -124.11357611 236.57396486 -142.95980835 241.77246094 C-147.4261606 246.03925314 -149.90021672 250.96645951 -152.07443237 256.68746948 C-153.32546436 259.81317264 -155.12601041 262.35674911 -157.12109375 265.0546875 C-157.68376953 265.87324219 -158.24644531 266.69179688 -158.82617188 267.53515625 C-159.6237793 268.69337891 -159.6237793 268.69337891 -160.4375 269.875 C-161.27571289 271.11443359 -161.27571289 271.11443359 -162.13085938 272.37890625 C-165.9042622 277.83474595 -169.47759536 282.82586512 -176 285 C-181.61875724 285.3684431 -185.15711379 285.19190228 -190 282 C-194.50786995 277.00479275 -195.54263763 273.70564851 -195.46484375 267.05859375 C-194.60749662 261.41739373 -191.27322712 257.52765259 -188 253 C-186.40440015 250.72369561 -184.82459171 248.43662402 -183.24609375 246.1484375 C-182.83516479 245.55377686 -182.42423584 244.95911621 -182.00085449 244.34643555 C-181.00004257 242.89798775 -179.99994589 241.4490458 -179 240 C-180.58868896 239.98598145 -180.58868896 239.98598145 -182.20947266 239.97167969 C-186.15715851 239.93166151 -190.10407471 239.8658709 -194.05126953 239.79248047 C-195.75624671 239.76433913 -197.46135269 239.74309065 -199.16650391 239.72900391 C-201.62469089 239.70747863 -204.08134048 239.660783 -206.5390625 239.609375 C-207.29555084 239.60814636 -208.05203918 239.60691772 -208.83145142 239.60565186 C-213.96831346 239.4650261 -216.9013726 238.3442788 -221 235 C-225.05630398 229.77740143 -224.77397544 224.34659858 -224 218 C-221.82218587 213.40239239 -219.53908388 211.18617259 -215 209 C-212.21528915 208.68151612 -209.64062063 208.51233841 -206.85546875 208.48828125 C-206.08568192 208.47033005 -205.31589508 208.45237885 -204.52278137 208.43388367 C-202.07774236 208.37994613 -199.63289668 208.34593927 -197.1875 208.3125 C-195.52406174 208.27931218 -193.86064893 208.24482116 -192.19726562 208.20898438 C-188.13165029 208.12422963 -184.06609064 208.05734027 -180 208 C-180.74765625 206.92621094 -181.4953125 205.85242188 -182.265625 204.74609375 C-183.26056618 203.30999941 -184.25534945 201.87379565 -185.25 200.4375 C-185.98669922 199.38079102 -185.98669922 199.38079102 -186.73828125 198.30273438 C-196.46658576 184.22912051 -196.46658576 184.22912051 -195 175 C-193.28663278 170.09812052 -190.6479921 167.27738295 -186 165 C-183.09765625 164.56640625 -183.09765625 164.56640625 -180.0625 164.5625 C-179.06347656 164.54316406 -178.06445312 164.52382812 -177.03515625 164.50390625 C-171.28887422 165.44313124 -168.14608863 168.55578076 -164.80859375 173.09765625 C-163.67380334 174.74501788 -162.55037148 176.40025252 -161.4375 178.0625 C-160.90576172 178.83916016 -160.37402344 179.61582031 -159.82617188 180.41601562 C-159.26349609 181.23908203 -158.70082031 182.06214844 -158.12109375 182.91015625 C-157.46181885 183.80710205 -156.80254395 184.70404785 -156.12329102 185.62817383 C-154.34283289 188.45557491 -153.28450636 190.77866819 -152.12475586 193.86206055 C-149.51639824 199.88113557 -146.75363476 204.58124866 -141 208 C-128.6846805 211.75282732 -114.31925196 210.16885872 -101.63171387 209.76818848 C-96.71153742 209.6333472 -91.79085932 209.60765073 -86.86914062 209.57226562 C-77.24256442 209.48721399 -67.6226718 209.28234735 -58 209 C-57.87882813 208.39671875 -57.75765625 207.7934375 -57.6328125 207.171875 C-57.38144531 205.97304688 -57.38144531 205.97304688 -57.125 204.75 C-56.88136719 203.56664062 -56.88136719 203.56664062 -56.6328125 202.359375 C-56 200 -56 200 -54.8671875 197.953125 C-53.85290364 196.06615164 -53.85290364 196.06615164 -54.09896851 194.10186768 C-58.87510063 182.96041724 -71.39462089 172.52068594 -79.625 163.75 C-80.23809902 163.09516758 -80.85119804 162.44033516 -81.48287582 161.76565933 C-98.04969613 143.22181138 -98.04969613 143.22181138 -120.44616699 135.056427 C-130.69683345 135.54620287 -140.75537839 138.40394907 -150.10588074 142.60301208 C-156.14830197 145.25460133 -160.75378657 145.29828174 -167 143 C-170.95167593 139.87158989 -173.61788787 136.69255755 -174.3359375 131.6328125 C-174.42531743 125.89462069 -174.01244424 122.43480679 -170 118 C-164.35017977 113.13275622 -157.81155038 112.48798647 -150.625 111.25 C-149.41199219 111.02957031 -148.19898438 110.80914062 -146.94921875 110.58203125 C-143.96815567 110.04215368 -140.98539715 109.51527204 -138 109 C-138.61520508 108.40050537 -139.23041016 107.80101074 -139.86425781 107.18334961 C-142.1665073 104.93255553 -144.46167758 102.67483165 -146.75244141 100.41235352 C-147.74091674 99.43886485 -148.73208046 98.46809748 -149.72607422 97.50024414 C-162.11566548 85.42817507 -162.11566548 85.42817507 -163.53125 78.33984375 C-163.45850981 72.74794131 -162.90380487 69.3147317 -159 65 C-155.54223025 61.87154166 -152.76577655 60.68731654 -148.1875 60.375 C-138.09036069 60.97763676 -131.0740251 69.52545064 -124.4375 76.375 C-123.21063477 77.62216797 -123.21063477 77.62216797 -121.95898438 78.89453125 C-119.96555089 80.92293725 -117.97953015 82.95803925 -116 85 C-114.67368702 81.45734823 -113.77008703 78.0035628 -113.140625 74.28515625 C-112.99367188 73.43373047 -112.84671875 72.58230469 -112.6953125 71.70507812 C-112.39949887 69.94965776 -112.11812547 68.19174021 -111.8515625 66.43164062 C-110.75095453 60.26170699 -108.86449514 56.08748489 -104 52 C-99.42303644 49.74738784 -94.5491336 49.47442121 -89.6875 51 C-85.61895046 52.84484837 -83.51093415 55.34773215 -81 59 C-77.70293929 68.89118214 -82.17524083 82.39690885 -84.0625 92.5 C-84.48687327 94.78586716 -84.90920791 97.07204158 -85.32627869 99.35925293 C-85.5833724 100.76802789 -85.84464689 102.17604877 -86.1108551 103.58312988 C-87.12402417 108.7765838 -87.12402417 108.7765838 -87 114 C-85.31801778 116.14933787 -83.71381968 117.91944873 -81.76757812 119.80004883 C-81.2116246 120.35673248 -80.65567108 120.91341614 -80.08287048 121.48696899 C-78.24393419 123.32242435 -76.38792953 125.13954081 -74.53125 126.95703125 C-73.2522094 128.22674561 -71.97426894 129.49756907 -70.6973877 130.76945496 C-67.33483206 134.11292631 -63.95753234 137.44111151 -60.57696533 140.76635742 C-57.12953705 144.16262489 -53.69623203 147.57310326 -50.26171875 150.98242188 C-43.52157708 157.66895057 -36.76577739 164.33941905 -30 171 C-29.16855469 170.6390625 -28.33710938 170.278125 -27.48046875 169.90625 C-26.39378906 169.4421875 -25.30710938 168.978125 -24.1875 168.5 C-23.10855469 168.0359375 -22.02960938 167.571875 -20.91796875 167.09375 C-18 166 -18 166 -15 166 C-15 138.94 -15 111.88 -15 84 C-16.65 83.34 -18.3 82.68 -20 82 C-22.32164283 80.39662426 -24.56998676 78.7689272 -26.8125 77.0625 C-32.91457631 72.4927939 -39.11632384 68.11487441 -45.45629883 63.88110352 C-57.62650759 55.65586218 -57.62650759 55.65586218 -60 50 C-60.70358198 45.11583208 -60.63851284 40.48851634 -58.3125 36.0625 C-54.93960422 31.59569207 -52.61664125 30.37103242 -47.1875 29.125 C-38.63865981 28.3744573 -32.08173879 33.75319379 -25.625 38.625 C-24.03460965 39.8057058 -22.44349932 40.98544261 -20.8515625 42.1640625 C-20.15885254 42.68436035 -19.46614258 43.2046582 -18.75244141 43.74072266 C-17.01904704 45.05662978 -17.01904704 45.05662978 -15 46 C-15.02094727 44.91058105 -15.04189453 43.82116211 -15.06347656 42.69873047 C-15.13611865 38.63978322 -15.18188718 34.58089294 -15.21972656 30.52148438 C-15.2397871 28.76780521 -15.26704251 27.01419247 -15.30175781 25.26074219 C-15.35052302 22.73355682 -15.37302392 20.20725909 -15.390625 17.6796875 C-15.41127014 16.90132538 -15.43191528 16.12296326 -15.45318604 15.3210144 C-15.45532492 10.07996962 -14.44220773 7.17258882 -11 3 C-6.88150105 -0.25144654 -5.67158558 0 0 0 Z " fill="#28ABE2" transform="translate(256,32)"/>
</svg>
